<svg xmlns="http://www.w3.org/2000/svg" width="900" height="180" viewBox="0 0 900 180">
  <defs>
    <linearGradient id="bg4" x1="0%" y1="0%" x2="100%" y2="100%">
      <stop offset="0%" style="stop-color:#0d1117"/>
      <stop offset="100%" style="stop-color:#0f172a"/>
    </linearGradient>
  </defs>

  <rect width="900" height="180" fill="url(#bg4)" rx="8"/>
  <text x="450" y="18" text-anchor="middle" font-family="'Courier New',monospace" font-size="9" fill="#64748b" letter-spacing="4">ML MODEL PERFORMANCE  ·  R² SCORE  ·  30m RUSLE PREDICTION</text>

  <!-- Model bars - animated fills -->
  <!-- Random Forest -->
  <text x="12" y="45" font-family="monospace" font-size="9" fill="#4ade80">Random Forest</text>
  <rect x="150" y="30" width="700" height="20" rx="3" fill="#1e293b"/>
  <rect x="150" y="30" width="0" height="20" rx="3" fill="#1a9850" opacity="0.8">
    <animate attributeName="width" values="0;672" dur="2s" fill="freeze" begin="0.2s"/>
  </rect>
  <text x="835" y="45" font-family="monospace" font-size="10" fill="#4ade80" font-weight="bold">0.96</text>

  <!-- Extra Trees -->
  <text x="12" y="73" font-family="monospace" font-size="9" fill="#34d399">Extra Trees</text>
  <rect x="150" y="58" width="700" height="20" rx="3" fill="#1e293b"/>
  <rect x="150" y="58" width="0" height="20" rx="3" fill="#059669" opacity="0.8">
    <animate attributeName="width" values="0;658" dur="2s" fill="freeze" begin="0.4s"/>
  </rect>
  <text x="835" y="73" font-family="monospace" font-size="10" fill="#34d399" font-weight="bold">0.94</text>

  <!-- Stacking Ensemble -->
  <text x="12" y="101" font-family="monospace" font-size="9" fill="#a78bfa">Stacking</text>
  <rect x="150" y="86" width="700" height="20" rx="3" fill="#1e293b"/>
  <rect x="150" y="86" width="0" height="20" rx="3" fill="#7c3aed" opacity="0.8">
    <animate attributeName="width" values="0;651" dur="2s" fill="freeze" begin="0.6s"/>
  </rect>
  <text x="835" y="101" font-family="monospace" font-size="10" fill="#a78bfa" font-weight="bold">0.93</text>

  <!-- Gradient Boosting -->
  <text x="12" y="129" font-family="monospace" font-size="9" fill="#fbbf24">Grad. Boost</text>
  <rect x="150" y="114" width="700" height="20" rx="3" fill="#1e293b"/>
  <rect x="150" y="114" width="0" height="20" rx="3" fill="#d97706" opacity="0.8">
    <animate attributeName="width" values="0;630" dur="2s" fill="freeze" begin="0.8s"/>
  </rect>
  <text x="835" y="129" font-family="monospace" font-size="10" fill="#fbbf24" font-weight="bold">0.90</text>

  <!-- Neural Net -->
  <text x="12" y="157" font-family="monospace" font-size="9" fill="#f472b6">Neural Net</text>
  <rect x="150" y="142" width="700" height="20" rx="3" fill="#1e293b"/>
  <rect x="150" y="142" width="0" height="20" rx="3" fill="#db2777" opacity="0.8">
    <animate attributeName="width" values="0;595" dur="2s" fill="freeze" begin="1s"/>
  </rect>
  <text x="835" y="157" font-family="monospace" font-size="10" fill="#f472b6" font-weight="bold">0.85</text>

  <!-- Scale ticks -->
  <g font-family="monospace" font-size="7" fill="#334155">
    <line x1="150" y1="170" x2="150" y2="175" stroke="#334155"/>
    <text x="148" y="178" text-anchor="middle">0.0</text>
    <line x1="290" y1="170" x2="290" y2="175" stroke="#334155"/>
    <text x="290" y="178" text-anchor="middle">0.2</text>
    <line x1="430" y1="170" x2="430" y2="175" stroke="#334155"/>
    <text x="430" y="178" text-anchor="middle">0.5</text>
    <line x1="570" y1="170" x2="570" y2="175" stroke="#334155"/>
    <text x="570" y="178" text-anchor="middle">0.7</text>
    <line x1="710" y1="170" x2="710" y2="175" stroke="#334155"/>
    <text x="710" y="178" text-anchor="middle">0.9</text>
    <line x1="850" y1="170" x2="850" y2="175" stroke="#334155"/>
    <text x="850" y="178" text-anchor="middle">1.0</text>
  </g>
</svg>
